<svg width="734" height="270" viewBox="0 0 734 270" fill="none" xmlns="http://www.w3.org/2000/svg">
<path d="M1.65414 2.63564V1.31781H29.4438V2.63564C21.8347 2.63564 23.3234 7.08329 27.4588 16.308L67.9853 107.897L90.3162 57.8194L71.7898 16.1433C67.1582 5.93019 64.677 2.47091 59.5492 2.47091V1.15309H87.3388V2.47091C79.7297 2.47091 81.2185 6.91856 85.3538 16.1433L125.88 107.732L156.978 38.2168C167.73 14.1666 171.369 2.30619 155.655 2.47091V1.15309H184.437V2.47091C173.52 2.47091 169.384 14.1666 158.632 38.2168L126.707 109.544L129.85 116.462C126.542 116.462 121.249 116.957 117.775 119.263L91.1433 59.6314L68.8124 109.709L71.9553 116.627C68.647 116.627 63.3537 117.121 59.88 119.428L13.8948 16.308C9.2632 6.09493 6.78199 2.63564 1.65414 2.63564Z" fill="#7A572F"/>
<path d="M253.606 117.945C218.704 117.945 194.388 94.2242 194.388 58.9725C194.388 23.7208 218.704 0 253.606 0C288.509 0 312.824 23.7208 312.824 58.9725C312.824 94.2242 288.509 117.945 253.606 117.945ZM253.606 2.14145C221.516 2.14145 207.455 30.6394 207.455 58.9725C207.455 87.3057 221.516 115.804 253.606 115.804C285.696 115.804 299.757 87.3057 299.757 58.9725C299.757 30.6394 285.696 2.14145 253.606 2.14145Z" fill="#7A572F"/>
<path d="M393.498 117.945C358.595 117.945 334.279 94.2242 334.279 58.9725C334.279 23.7208 358.595 0 393.498 0C428.4 0 452.716 23.7208 452.716 58.9725C452.716 94.2242 428.4 117.945 393.498 117.945ZM393.498 2.14145C361.407 2.14145 347.347 30.6394 347.347 58.9725C347.347 87.3057 361.407 115.804 393.498 115.804C425.588 115.804 439.648 87.3057 439.648 58.9725C439.648 30.6394 425.588 2.14145 393.498 2.14145Z" fill="#7A572F"/>
<path d="M510.824 1.31781C545.727 1.31781 570.042 23.7208 570.042 58.9725C570.042 94.2242 545.727 116.627 510.824 116.627H469.305V115.309C471.786 115.309 476.418 113.662 476.418 101.637V16.308C476.418 4.28291 471.786 2.63564 469.305 2.63564V1.31781H510.824ZM488.328 2.96509V114.98H508.343C541.591 114.98 556.975 91.7533 556.975 58.9725C556.975 26.1917 541.591 2.96509 508.343 2.96509H488.328Z" fill="#7A572F"/>
<path d="M103.384 221.735C103.384 228.818 99.2486 236.56 91.4741 242.985C95.7749 250.892 98.4216 259.787 98.4216 270H96.2712C96.2712 260.446 93.7899 252.045 89.6546 244.302C80.226 251.221 66.3312 256.163 48.7972 256.163C13.8948 256.163 0 240.514 0 223.053C0 205.097 14.3911 192.743 29.1129 183.518C21.3385 174.293 16.0452 164.08 16.0452 151.725C16.0452 130.146 31.925 120.757 47.9702 120.757C69.6394 120.757 81.7147 134.759 81.7147 149.09C81.7147 164.245 73.1132 173.47 57.3988 181.871L47.3085 187.307C44.6619 188.624 42.3461 190.107 40.0303 191.425C55.7446 206.25 76.256 219.758 88.3313 237.878C97.7599 226.182 97.5945 210.698 84.0305 199.826C89.6546 200.65 103.384 206.909 103.384 221.735ZM18.1956 151.725C18.1956 163.421 23.4888 173.305 31.0979 182.365C34.5716 180.388 37.8799 178.411 41.0228 176.764L47.9702 172.975C68.1507 161.939 74.6019 154.032 74.6019 143.983C74.6019 133.276 66.0003 122.898 47.9702 122.898C32.4212 122.898 18.1956 132.288 18.1956 151.725ZM48.7972 254.516C65.6695 254.516 78.9027 248.421 86.8425 239.69C74.7673 221.57 53.9251 207.898 37.8799 192.743C17.2031 205.756 9.09779 218.111 9.09779 229.477C9.09779 246.773 25.8046 254.516 48.7972 254.516Z" fill="#7A572F"/>
<path d="M149.263 207.239V235.901C149.263 247.926 153.894 249.574 156.376 249.574V250.892H130.24V249.574C132.721 249.574 137.353 247.926 137.353 235.901V150.572C137.353 138.547 132.721 136.9 130.24 136.9V135.582H156.376V136.9C153.894 136.9 149.263 138.547 149.263 150.572V205.427L193.594 161.939C213.94 142.007 210.135 136.9 203.519 136.9V135.582H232.301V136.9C222.376 136.9 216.586 141.512 195.579 161.939L179.203 178.082C185.985 178.576 191.609 182.694 205.007 182.694L228.496 235.901C232.632 245.456 235.278 249.574 240.737 249.574V250.892H212.947V249.574C220.556 249.574 219.068 245.291 214.932 235.901L196.571 194.39C191.113 182.035 183.007 179.4 177.88 179.235L149.263 207.239Z" fill="#7A572F"/>
<path d="M253.978 249.574C256.459 249.574 261.091 247.926 261.091 235.901V150.572C261.091 138.547 256.459 136.9 253.978 136.9V135.582H306.249C335.031 135.582 349.091 144.477 349.091 162.268C349.091 181.706 331.723 189.283 311.046 189.778C320.64 192.249 325.271 196.367 334.535 196.367L352.069 235.901C356.369 245.456 358.851 249.574 364.309 249.574V250.892H336.52V249.574C344.129 249.574 342.805 245.456 338.505 235.901L324.775 204.933C319.647 193.402 311.707 189.778 298.474 189.778H273.001V235.901C273.001 247.926 277.632 249.574 280.113 249.574V250.892H253.978V249.574ZM306.249 188.13C320.64 188.13 336.023 182.2 336.023 162.268C336.023 141.018 320.64 137.229 304.264 137.229H273.001V188.13H306.249Z" fill="#7A572F"/>
<path d="M440.139 132.782L485.959 235.901C490.425 246.114 493.071 249.574 498.199 249.574V250.892H470.41V249.574C478.019 249.574 476.53 245.126 472.395 235.901L462.304 213.004H401.266L400.936 213.828C390.184 237.878 386.545 249.738 402.259 249.574V250.892H373.477V249.574C384.394 249.574 388.53 237.878 399.281 213.828L430.71 143.324C427.733 138.712 424.59 136.9 420.289 136.9V135.582C428.725 135.582 432.364 135.582 440.139 132.782ZM431.703 144.972L402.094 211.357H461.477L434.68 150.902C433.688 148.596 432.695 146.619 431.703 144.972Z" fill="#7A572F"/>
<path d="M537.443 249.574V250.892H511.307V249.574C513.788 249.574 518.42 247.926 518.42 235.901V150.572C518.42 138.547 513.788 136.9 511.307 136.9V135.582H600.796L609.729 165.068H608.405C601.458 143.983 576.315 137.229 540.916 137.229H530.33V173.964H536.946C553.984 173.964 572.841 170.834 572.841 158.479H574.165V191.425H572.841C572.841 178.247 553.984 175.611 536.946 175.611H530.33V235.901C530.33 247.926 534.961 249.574 537.443 249.574Z" fill="#7A572F"/>
<path d="M627.804 135.582H725.068L734 165.068H732.677C724.406 138.877 687.849 137.724 682.391 137.724V235.901C682.391 247.926 687.022 249.574 689.504 249.574V250.892H663.368V249.574C665.849 249.574 670.481 247.926 670.481 235.901V137.724C665.022 137.724 628.466 138.877 620.195 165.068H618.872L627.804 135.582Z" fill="#7A572F"/>
</svg>
