<svg width="55" height="54" viewBox="0 0 55 54" fill="none" xmlns="http://www.w3.org/2000/svg">
<path d="M52.0101 20.5978C53.4262 24.1441 52.7738 29.285 50.9408 32.6599C46.7765 40.3269 39.5983 52.4619 29.7511 52.1443C15.601 51.688 9.40966 45.1948 3.0392 32.4511C-4.2337 17.9021 9.39954 0.184215 21.1842 2.01561C32.8052 4.1276 47.1947 8.5395 52.0101 20.5978Z" stroke="#3D2C18" stroke-width="2" stroke-linecap="round"/>
<path d="M24.2994 44.2856C16.7716 42.0013 10.8121 30.1539 9.23576 24.237C7.05921 16.0673 15.8808 5.59383 23.2335 9.41864C35.0362 15.5475 50.8769 19.2425 42.8445 30.6212C34.8121 42 29.97 46.0064 24.2994 44.2856Z" stroke="#3D2C18" stroke-width="2" stroke-linecap="round"/>
<path d="M25.9087 35.5164C22.9806 34.6767 18.7751 28.4926 18.4882 25.4775C17.4496 14.563 25.9087 18 32.0731 23.7027C38.2375 29.4054 30.5187 36.8383 25.9087 35.5164Z" stroke="#3D2C18" stroke-width="2" stroke-linecap="round"/>
</svg>
