<svg width="76" height="76" viewBox="0 0 76 76" fill="none" xmlns="http://www.w3.org/2000/svg">
<path d="M14.7996 26.8864C23.8046 19.2433 36.3439 10.9193 48.7198 14.8469C52.3595 16.002 55.9195 19.7678 57.3654 23.3258C60.65 31.4089 65.4764 44.6561 58.9837 52.0665C49.654 62.7149 40.707 63.3814 26.8146 60.221C24.3415 59.6584 22.1312 58.654 20.1958 57.329" stroke="#3D2C18" stroke-width="2" stroke-linecap="round"/>
<path d="M21.8222 29.9989C34.0475 24.7637 46.9532 14.863 50.6531 28.2909C54.353 41.7187 54.378 48.0033 49.4504 51.295C43.6642 55.1602 32.8729 53.3301 26.6005 51.1015" stroke="#3D2C18" stroke-width="2" stroke-linecap="round"/>
<path d="M30.1433 34.786C32.2917 33.5348 35.361 32.6568 38.4716 32.2279C46.7905 31.0807 47.6393 41.7628 43.6928 44.4876C41.6664 45.8868 36.4109 45.7154 33.1438 44.7051" stroke="#3D2C18" stroke-width="2" stroke-linecap="round"/>
</svg>
